<mxfile host="Electron" modified="2023-04-21T15:53:03.613Z" agent="Mozilla/5.0 (Windows NT 10.0; Win64; x64) AppleWebKit/537.36 (KHTML, like Gecko) draw.io/21.1.2 Chrome/106.0.5249.199 Electron/21.4.3 Safari/537.36" etag="GtV9DDxyVNSdqyKycMyK" version="21.1.2" type="device">
  <diagram name="Page-1" id="3ZNWpio1twOVjBkZWGlh">
    <mxGraphModel dx="1098" dy="820" grid="1" gridSize="10" guides="1" tooltips="1" connect="1" arrows="1" fold="1" page="1" pageScale="1" pageWidth="850" pageHeight="1100" math="0" shadow="0">
      <root>
        <mxCell id="0" />
        <mxCell id="1" parent="0" />
        <mxCell id="CJfr3QqIfbeVyX5R_hRZ-20" value="" style="group" vertex="1" connectable="0" parent="1">
          <mxGeometry x="160" y="840" width="149" height="80" as="geometry" />
        </mxCell>
        <mxCell id="CJfr3QqIfbeVyX5R_hRZ-21" value="" style="rounded=0;whiteSpace=wrap;html=1;fillColor=#dae8fc;strokeColor=#6c8ebf;" vertex="1" parent="CJfr3QqIfbeVyX5R_hRZ-20">
          <mxGeometry width="149" height="80" as="geometry" />
        </mxCell>
        <mxCell id="CJfr3QqIfbeVyX5R_hRZ-40" value="" style="sketch=0;pointerEvents=1;shadow=0;dashed=0;html=1;strokeColor=none;fillColor=#9C9C9C;labelPosition=center;verticalLabelPosition=bottom;verticalAlign=top;outlineConnect=0;align=center;shape=mxgraph.office.security.lock_unprotected;gradientColor=default;" vertex="1" parent="CJfr3QqIfbeVyX5R_hRZ-20">
          <mxGeometry x="10" y="12.5" width="38" height="55" as="geometry" />
        </mxCell>
        <mxCell id="CJfr3QqIfbeVyX5R_hRZ-23" value="" style="rounded=1;whiteSpace=wrap;html=1;fillColor=#6C8EBF;strokeColor=#415573;" vertex="1" parent="1">
          <mxGeometry x="350" y="530" width="120" height="60" as="geometry" />
        </mxCell>
        <mxCell id="CJfr3QqIfbeVyX5R_hRZ-32" style="edgeStyle=orthogonalEdgeStyle;rounded=0;orthogonalLoop=1;jettySize=auto;html=1;exitX=1;exitY=0.5;exitDx=0;exitDy=0;entryX=0;entryY=0.5;entryDx=0;entryDy=0;" edge="1" parent="1" source="CJfr3QqIfbeVyX5R_hRZ-24" target="CJfr3QqIfbeVyX5R_hRZ-25">
          <mxGeometry relative="1" as="geometry" />
        </mxCell>
        <mxCell id="CJfr3QqIfbeVyX5R_hRZ-24" value="" style="rounded=1;whiteSpace=wrap;html=1;flipH=1;fillColor=#6C8EBF;strokeColor=#415573;" vertex="1" parent="1">
          <mxGeometry x="350" y="610" width="120" height="60" as="geometry" />
        </mxCell>
        <mxCell id="CJfr3QqIfbeVyX5R_hRZ-33" style="edgeStyle=orthogonalEdgeStyle;rounded=0;orthogonalLoop=1;jettySize=auto;html=1;exitX=1;exitY=0.5;exitDx=0;exitDy=0;entryX=0;entryY=0.5;entryDx=0;entryDy=0;" edge="1" parent="1" source="CJfr3QqIfbeVyX5R_hRZ-25" target="CJfr3QqIfbeVyX5R_hRZ-26">
          <mxGeometry relative="1" as="geometry" />
        </mxCell>
        <mxCell id="CJfr3QqIfbeVyX5R_hRZ-25" value="" style="rounded=1;whiteSpace=wrap;html=1;flipH=1;fillColor=#6C8EBF;strokeColor=#415573;" vertex="1" parent="1">
          <mxGeometry x="505" y="610" width="120" height="60" as="geometry" />
        </mxCell>
        <mxCell id="CJfr3QqIfbeVyX5R_hRZ-26" value="" style="rounded=1;whiteSpace=wrap;html=1;flipH=1;fillColor=#6C8EBF;strokeColor=#415573;" vertex="1" parent="1">
          <mxGeometry x="660" y="610" width="120" height="60" as="geometry" />
        </mxCell>
        <mxCell id="CJfr3QqIfbeVyX5R_hRZ-35" style="edgeStyle=orthogonalEdgeStyle;rounded=0;orthogonalLoop=1;jettySize=auto;html=1;exitX=1;exitY=0.5;exitDx=0;exitDy=0;entryX=0;entryY=0.5;entryDx=0;entryDy=0;" edge="1" parent="1" source="CJfr3QqIfbeVyX5R_hRZ-27" target="CJfr3QqIfbeVyX5R_hRZ-28">
          <mxGeometry relative="1" as="geometry" />
        </mxCell>
        <mxCell id="CJfr3QqIfbeVyX5R_hRZ-27" value="" style="rounded=1;whiteSpace=wrap;html=1;fillColor=#6C8EBF;strokeColor=#415573;" vertex="1" parent="1">
          <mxGeometry x="350" y="770" width="120" height="60" as="geometry" />
        </mxCell>
        <mxCell id="CJfr3QqIfbeVyX5R_hRZ-28" value="" style="rounded=1;whiteSpace=wrap;html=1;fillColor=#6C8EBF;strokeColor=#415573;" vertex="1" parent="1">
          <mxGeometry x="520" y="770" width="120" height="60" as="geometry" />
        </mxCell>
        <mxCell id="CJfr3QqIfbeVyX5R_hRZ-30" style="edgeStyle=orthogonalEdgeStyle;rounded=0;orthogonalLoop=1;jettySize=auto;html=1;exitX=1;exitY=0.5;exitDx=0;exitDy=0;entryX=0;entryY=0.5;entryDx=0;entryDy=0;" edge="1" parent="1" source="CJfr3QqIfbeVyX5R_hRZ-3" target="CJfr3QqIfbeVyX5R_hRZ-23">
          <mxGeometry relative="1" as="geometry" />
        </mxCell>
        <mxCell id="CJfr3QqIfbeVyX5R_hRZ-3" value="" style="rounded=0;whiteSpace=wrap;html=1;fillColor=#dae8fc;strokeColor=#6c8ebf;" vertex="1" parent="1">
          <mxGeometry x="160" y="520" width="149" height="80" as="geometry" />
        </mxCell>
        <mxCell id="CJfr3QqIfbeVyX5R_hRZ-9" value="" style="sketch=0;pointerEvents=1;shadow=0;dashed=0;html=1;strokeColor=none;fillColor=#9C9C9C;labelPosition=center;verticalLabelPosition=bottom;verticalAlign=top;outlineConnect=0;align=center;shape=mxgraph.office.security.lock_unprotected;gradientColor=default;" vertex="1" parent="1">
          <mxGeometry x="170" y="532.5" width="38" height="55" as="geometry" />
        </mxCell>
        <mxCell id="CJfr3QqIfbeVyX5R_hRZ-11" value="" style="group;flipH=1;" vertex="1" connectable="0" parent="1">
          <mxGeometry x="160" y="600" width="149" height="80" as="geometry" />
        </mxCell>
        <mxCell id="CJfr3QqIfbeVyX5R_hRZ-12" value="" style="rounded=0;whiteSpace=wrap;html=1;fillColor=#dae8fc;strokeColor=#6c8ebf;" vertex="1" parent="CJfr3QqIfbeVyX5R_hRZ-11">
          <mxGeometry width="149" height="80" as="geometry" />
        </mxCell>
        <mxCell id="CJfr3QqIfbeVyX5R_hRZ-37" value="" style="sketch=0;pointerEvents=1;shadow=0;dashed=0;html=1;strokeColor=none;fillColor=#9C9C9C;labelPosition=center;verticalLabelPosition=bottom;verticalAlign=top;outlineConnect=0;align=center;shape=mxgraph.office.security.lock_unprotected;gradientColor=default;" vertex="1" parent="CJfr3QqIfbeVyX5R_hRZ-11">
          <mxGeometry x="10" y="12.5" width="38" height="55" as="geometry" />
        </mxCell>
        <mxCell id="CJfr3QqIfbeVyX5R_hRZ-15" value="" style="rounded=0;whiteSpace=wrap;html=1;fillColor=#dae8fc;strokeColor=#6c8ebf;" vertex="1" parent="1">
          <mxGeometry x="160" y="680" width="149" height="80" as="geometry" />
        </mxCell>
        <mxCell id="CJfr3QqIfbeVyX5R_hRZ-17" value="" style="group" vertex="1" connectable="0" parent="1">
          <mxGeometry x="160" y="760" width="149" height="80" as="geometry" />
        </mxCell>
        <mxCell id="CJfr3QqIfbeVyX5R_hRZ-18" value="" style="rounded=0;whiteSpace=wrap;html=1;fillColor=#dae8fc;strokeColor=#6c8ebf;" vertex="1" parent="CJfr3QqIfbeVyX5R_hRZ-17">
          <mxGeometry width="149" height="80" as="geometry" />
        </mxCell>
        <mxCell id="CJfr3QqIfbeVyX5R_hRZ-39" value="" style="sketch=0;pointerEvents=1;shadow=0;dashed=0;html=1;strokeColor=none;fillColor=#9C9C9C;labelPosition=center;verticalLabelPosition=bottom;verticalAlign=top;outlineConnect=0;align=center;shape=mxgraph.office.security.lock_unprotected;gradientColor=default;" vertex="1" parent="CJfr3QqIfbeVyX5R_hRZ-17">
          <mxGeometry x="10" y="15" width="38" height="55" as="geometry" />
        </mxCell>
        <mxCell id="CJfr3QqIfbeVyX5R_hRZ-31" style="edgeStyle=orthogonalEdgeStyle;rounded=0;orthogonalLoop=1;jettySize=auto;html=1;exitX=1;exitY=0.5;exitDx=0;exitDy=0;entryX=0;entryY=0.5;entryDx=0;entryDy=0;" edge="1" parent="1" source="CJfr3QqIfbeVyX5R_hRZ-12" target="CJfr3QqIfbeVyX5R_hRZ-24">
          <mxGeometry relative="1" as="geometry" />
        </mxCell>
        <mxCell id="CJfr3QqIfbeVyX5R_hRZ-34" style="edgeStyle=orthogonalEdgeStyle;rounded=0;orthogonalLoop=1;jettySize=auto;html=1;exitX=1;exitY=0.5;exitDx=0;exitDy=0;entryX=0;entryY=0.5;entryDx=0;entryDy=0;" edge="1" parent="1" source="CJfr3QqIfbeVyX5R_hRZ-18" target="CJfr3QqIfbeVyX5R_hRZ-27">
          <mxGeometry relative="1" as="geometry" />
        </mxCell>
        <mxCell id="CJfr3QqIfbeVyX5R_hRZ-38" value="" style="sketch=0;pointerEvents=1;shadow=0;dashed=0;html=1;strokeColor=none;fillColor=#9C9C9C;labelPosition=center;verticalLabelPosition=bottom;verticalAlign=top;outlineConnect=0;align=center;shape=mxgraph.office.security.lock_unprotected;gradientColor=default;" vertex="1" parent="1">
          <mxGeometry x="170" y="692.5" width="38" height="55" as="geometry" />
        </mxCell>
      </root>
    </mxGraphModel>
  </diagram>
</mxfile>
